<svg xmlns="http://www.w3.org/2000/svg" xmlns:xlink="http://www.w3.org/1999/xlink" width="127" height="127" viewBox="0 0 127 127"><defs><style>.a{fill:none;}.b{fill:#8aaec7;}.c{fill:#fff;}.d{filter:url(#c);}.e{filter:url(#a);}</style><filter id="a" x="0" y="0" width="127" height="127" filterUnits="userSpaceOnUse"><feOffset dx="1" dy="1" input="SourceAlpha"/><feGaussianBlur stdDeviation="0.5" result="b"/><feFlood flood-opacity="0.502"/><feComposite operator="in" in2="b"/><feComposite in="SourceGraphic"/></filter><filter id="c" x="0" y="0" width="127" height="127" filterUnits="userSpaceOnUse"><feOffset dx="1" dy="1" input="SourceAlpha"/><feGaussianBlur stdDeviation="0.5" result="d"/><feFlood flood-opacity="0.502" result="e"/><feComposite operator="out" in="SourceGraphic" in2="d"/><feComposite operator="in" in="e"/><feComposite operator="in" in2="SourceGraphic"/></filter></defs><g transform="translate(-448.5 -231.5)"><rect class="a" width="124" height="124" transform="translate(449 232)"/><g data-type="innerShadowGroup"><g class="e" transform="matrix(1, 0, 0, 1, 448.5, 231.5)"><path class="b" d="M110.6,0h-9V7h-80V0h-9V7h-7v6H0v9H5.6v80H0v9H5.6v6h7v7h9v-7h80v7h9v-7h7v-6H124v-9h-6.4V22H124V13h-6.4V7h-7V0Zm-98,110V14h98v96Z" transform="translate(0.5 0.5)"/></g><g class="d" transform="matrix(1, 0, 0, 1, 448.5, 231.5)"><path class="c" d="M110.6,0h-9V7h-80V0h-9V7h-7v6H0v9H5.6v80H0v9H5.6v6h7v7h9v-7h80v7h9v-7h7v-6H124v-9h-6.4V22H124V13h-6.4V7h-7V0Zm-98,110V14h98v96Z" transform="translate(0.5 0.5)"/></g></g></g></svg>