<svg t="1726670523308" class="icon" viewBox="0 0 1024 1024" version="1.1" xmlns="http://www.w3.org/2000/svg" p-id="5501" width="200" height="200"><path d="M846.218667 944.490667a42.666667 42.666667 0 0 1 42.666666 42.666666v32.106667H135.114667v-32.106667a42.666667 42.666667 0 0 1 42.666666-42.666666h16.586667V111.402667c0-58.912 47.754667-106.666667 106.666667-106.666667h421.930666c58.912 0 106.666667 47.754667 106.666667 106.666667v833.088h16.586667z m-59.253334-833.088a64 64 0 0 0-64-64H301.034667a64 64 0 0 0-64 64v865.194666h549.930666V111.402667z m-431.413333 7.552h312.896a42.666667 42.666667 0 0 1 42.666667 42.666666v203.52a42.666667 42.666667 0 0 1-42.666667 42.666667H355.552a42.666667 42.666667 0 0 1-42.666667-42.666667v-203.52a42.666667 42.666667 0 0 1 42.666667-42.666666z m0 42.666666v203.52h312.896v-203.52H355.552z m165.589333 361.237334l-9.312 93.888h104.469334L483.018667 789.525333l11.626666-110.026666h-91.68l118.186667-156.64z" fill="#666666" p-id="5502"></path></svg>